<?xml version="1.0" standalone="no"?>
<!DOCTYPE svg PUBLIC "-//W3C//DTD SVG 20010904//EN"
 "http://www.w3.org/TR/2001/REC-SVG-20010904/DTD/svg10.dtd">
<svg version="1.0" xmlns="http://www.w3.org/2000/svg"
 width="1024.000000pt" height="1024.000000pt" viewBox="0 0 1024.000000 1024.000000"
 preserveAspectRatio="xMidYMid meet">
<metadata>
Created by potrace 1.14, written by Peter Selinger 2001-2017
</metadata>
<g transform="translate(0.000000,1024.000000) scale(0.100000,-0.100000)"
fill="#000000" stroke="none">
<path d="M0 5120 l0 -5120 5120 0 5120 0 0 5120 0 5120 -5120 0 -5120 0 0
-5120z m420 4986 c0 -3 -4 -8 -10 -11 -5 -3 -10 -1 -10 4 0 6 5 11 10 11 6 0
10 -2 10 -4z m5135 -95 c83 -6 175 -15 205 -20 30 -6 105 -18 165 -27 61 -8
139 -22 175 -29 99 -21 331 -75 365 -85 141 -41 382 -117 410 -130 11 -5 47
-18 80 -30 33 -13 83 -31 110 -41 28 -10 78 -32 113 -48 34 -17 65 -31 68 -31
9 0 347 -169 389 -195 22 -13 58 -34 80 -46 136 -74 456 -290 581 -393 11 -8
39 -31 64 -51 210 -171 345 -299 543 -515 203 -222 325 -374 462 -580 39 -58
73 -106 78 -108 4 -2 7 -8 7 -13 0 -5 17 -35 39 -67 21 -31 52 -82 69 -113 16
-32 37 -68 45 -80 22 -35 177 -342 177 -351 0 -4 13 -35 29 -70 39 -83 101
-236 101 -248 0 -6 8 -29 19 -53 56 -126 138 -413 194 -677 29 -138 46 -244
73 -455 25 -189 27 -242 28 -540 0 -322 -4 -387 -40 -660 -58 -444 -173 -875
-337 -1265 -89 -213 -254 -535 -356 -696 -65 -103 -152 -236 -162 -248 -5 -6
-41 -54 -80 -106 -100 -136 -108 -146 -172 -222 -66 -79 -114 -133 -174 -196
-24 -24 -43 -48 -43 -52 0 -5 -4 -10 -10 -12 -5 -1 -62 -55 -127 -119 -222
-217 -404 -365 -688 -560 -44 -30 -87 -58 -95 -62 -8 -4 -35 -20 -60 -36 -105
-68 -310 -183 -435 -243 -141 -69 -272 -128 -283 -128 -5 0 -32 -11 -60 -25
-29 -14 -55 -25 -58 -25 -3 0 -20 -7 -37 -15 -18 -8 -113 -41 -212 -74 -331
-109 -695 -187 -1065 -228 -117 -13 -243 -17 -515 -17 -359 -1 -522 9 -710 40
-49 8 -119 19 -155 24 -420 58 -1068 272 -1480 488 -47 25 -103 54 -125 65
-22 11 -64 35 -93 53 -29 19 -55 34 -58 34 -2 0 -17 8 -32 19 -15 10 -62 41
-105 67 -43 27 -89 56 -102 64 -61 38 -253 177 -280 202 -16 15 -33 28 -37 28
-4 0 -13 6 -20 13 -7 7 -53 46 -103 87 -83 68 -268 235 -354 320 -70 69 -211
223 -290 320 -30 36 -57 67 -60 70 -4 3 -20 23 -36 45 -17 22 -32 42 -36 45
-47 41 -344 493 -411 625 -9 17 -44 86 -79 155 -75 145 -129 264 -171 370 -16
41 -35 89 -43 105 -13 29 -94 274 -135 405 -37 121 -107 441 -130 590 -6 41
-15 102 -20 135 -20 124 -40 448 -40 642 0 258 30 638 66 823 33 177 65 328
79 375 7 28 20 77 29 110 38 151 106 360 174 530 78 198 250 551 328 672 19
30 34 55 34 57 0 11 82 138 171 264 24 35 51 73 59 85 70 101 203 269 320 402
98 111 461 461 524 504 12 8 23 17 26 20 26 30 205 166 345 263 498 346 1101
613 1700 751 193 44 258 57 370 72 61 8 133 20 160 25 28 5 133 14 235 20 102
6 192 13 200 15 24 7 463 -4 625 -14z m-5354 -90 c-7 -5 -11 -13 -7 -19 3 -5
-1 -15 -8 -21 -11 -10 -15 -8 -18 6 -4 18 18 42 37 43 6 0 4 -4 -4 -9z"/>
<path d="M4940 9989 c-631 -24 -1239 -161 -1800 -406 -118 -52 -409 -205 -497
-261 -57 -37 -148 -94 -202 -127 -104 -64 -178 -116 -294 -205 -40 -31 -85
-64 -101 -74 -46 -29 -136 -109 -296 -263 -52 -50 -121 -115 -152 -145 -31
-29 -91 -93 -133 -143 -42 -49 -88 -103 -103 -120 -141 -164 -187 -225 -374
-497 -64 -94 -131 -207 -163 -276 -9 -18 -32 -60 -53 -95 -60 -101 -173 -342
-209 -447 -43 -124 -66 -187 -78 -210 -55 -106 -163 -528 -211 -825 -8 -49
-19 -108 -24 -130 -32 -124 -49 -744 -30 -1035 19 -281 72 -584 150 -865 12
-44 28 -102 35 -130 33 -131 81 -276 120 -360 7 -16 17 -43 21 -58 3 -16 17
-51 30 -78 13 -27 24 -53 24 -59 0 -6 4 -18 10 -28 5 -9 25 -53 45 -97 57
-124 85 -180 163 -320 86 -153 90 -160 119 -202 13 -17 23 -34 23 -37 0 -2 33
-53 73 -113 386 -576 795 -989 1369 -1381 105 -71 162 -108 203 -131 22 -12
58 -33 80 -45 133 -77 178 -101 347 -184 103 -51 192 -92 197 -92 6 0 34 -11
63 -24 128 -59 474 -177 618 -211 30 -7 91 -22 135 -33 121 -31 212 -50 295
-62 41 -6 95 -16 120 -22 25 -6 90 -14 145 -18 55 -5 145 -14 200 -21 135 -17
654 -17 810 0 66 7 158 16 205 21 196 19 613 103 790 160 30 10 102 32 160 50
112 33 165 52 300 107 47 19 94 38 105 43 26 10 104 46 235 109 803 385 1509
1016 1999 1786 35 55 73 118 86 140 12 22 42 74 65 115 63 110 192 379 240
500 23 58 45 114 51 125 5 11 18 47 28 80 11 33 27 80 37 105 23 64 72 231 93
321 10 42 21 81 24 86 3 5 11 36 16 69 6 32 17 91 25 129 18 89 51 299 68 435
9 70 13 232 13 485 0 374 -3 424 -40 675 -7 52 -17 118 -20 145 -8 59 -45 229
-81 370 -14 55 -32 125 -39 155 -19 76 -80 261 -133 400 -83 219 -261 573
-424 843 -33 56 -77 126 -97 156 -20 29 -54 81 -76 115 -64 99 -205 278 -301
381 -137 148 -422 434 -493 495 -36 30 -77 66 -92 80 -15 14 -34 30 -41 35
-13 11 -163 127 -183 142 -90 69 -243 173 -253 173 -5 0 -15 6 -21 14 -7 8
-31 24 -54 36 -23 12 -61 35 -85 51 -24 16 -45 29 -46 29 -2 0 -59 31 -127 68
-68 38 -149 80 -179 94 -30 14 -93 44 -140 66 -77 36 -180 80 -237 103 -13 5
-33 13 -45 19 -59 25 -156 56 -303 97 -88 25 -167 48 -175 51 -59 22 -459 106
-602 126 -288 40 -620 56 -928 45z m4 -204 c-4 -10 3 -18 21 -25 14 -5 23 -14
20 -20 -13 -21 53 -9 78 14 14 13 38 26 54 30 18 4 23 3 14 -3 -9 -6 1 -11 37
-16 42 -5 51 -11 54 -28 2 -15 11 -22 26 -23 25 -1 30 11 7 20 -29 11 -16 32
20 33 25 1 38 -4 46 -18 14 -28 28 -23 26 9 -2 27 -2 27 63 28 108 1 123 -5
139 -56 8 -24 25 -55 38 -68 21 -20 22 -26 10 -35 -8 -7 -14 -25 -13 -42 1
-24 6 -31 27 -33 24 -3 27 1 33 42 4 25 11 48 15 50 4 3 25 0 45 -6 29 -9 42
-9 57 0 10 7 26 12 35 12 13 0 14 -3 4 -15 -9 -11 -8 -20 10 -45 12 -17 25
-28 30 -25 5 3 26 -4 47 -15 45 -24 59 -25 70 -5 6 10 27 16 63 18 51 2 55 0
53 -20 -2 -15 7 -25 32 -37 19 -10 35 -23 35 -30 0 -8 11 -17 25 -20 14 -4 25
-11 25 -16 0 -6 7 -10 15 -10 23 0 66 -52 59 -72 -4 -13 0 -18 15 -19 12 -1
27 -2 34 -3 6 -1 15 -10 18 -21 3 -12 12 -19 22 -17 12 2 17 -4 17 -23 0 -18
5 -25 18 -25 11 0 27 -8 36 -19 11 -13 31 -19 63 -19 45 -1 77 -12 34 -12 -16
0 -21 -5 -19 -17 3 -12 12 -17 28 -15 46 5 72 -7 68 -32 -2 -16 9 -34 36 -59
21 -21 42 -37 46 -37 4 0 15 -9 24 -19 17 -18 16 -20 -3 -26 -19 -6 -20 -8 -7
-27 9 -12 13 -32 10 -48 -5 -21 0 -32 18 -46 14 -11 30 -29 37 -42 6 -12 20
-22 30 -22 26 0 33 -11 15 -24 -8 -7 -12 -19 -9 -28 8 -20 40 -29 54 -15 6 6
11 7 11 1 0 -5 -10 -15 -22 -23 -20 -12 -20 -14 -4 -23 10 -5 28 -7 41 -4 27
7 50 -15 42 -43 -5 -22 1 -34 26 -47 16 -9 16 -11 -3 -32 l-21 -22 24 -9 c32
-13 38 -31 18 -55 -9 -11 -11 -16 -5 -13 12 7 29 -37 20 -52 -3 -4 -1 -24 4
-44 6 -28 4 -41 -6 -51 -11 -12 -11 -15 1 -20 9 -3 15 -18 15 -36 0 -20 5 -30
15 -30 9 0 16 -11 17 -27 2 -26 4 -70 11 -178 1 -22 7 -45 12 -51 41 -47 47
-58 42 -83 -9 -41 13 -89 45 -100 16 -6 36 -7 45 -4 11 4 14 2 11 -8 -3 -8
-11 -14 -19 -14 -8 0 -14 -7 -15 -15 -2 -31 -5 -33 -25 -14 l-21 19 4 -45 c3
-25 13 -71 22 -104 10 -35 14 -72 10 -92 -5 -29 -4 -33 10 -28 13 5 16 0 16
-25 0 -17 5 -31 10 -31 16 0 26 33 12 38 -7 2 -10 8 -7 13 4 5 15 0 27 -10 16
-15 18 -23 9 -38 -6 -10 -11 -15 -11 -10 0 10 -31 -23 -53 -56 -10 -16 -27
-27 -40 -27 -39 0 -50 -15 -23 -30 23 -12 24 -14 10 -36 -14 -20 -14 -23 3
-33 15 -9 13 -10 -12 -5 -16 4 -38 11 -47 15 -9 5 -26 9 -38 9 -16 0 -20 4
-15 19 4 14 -1 21 -22 29 -15 6 -50 31 -77 56 -49 46 -72 52 -139 39 -19 -3
-27 -10 -23 -19 8 -20 -9 -26 -41 -13 -41 17 -103 18 -112 1 -4 -7 -22 -15
-40 -16 -20 -1 -37 -10 -43 -20 -23 -40 -47 -53 -138 -70 -51 -10 -117 -29
-145 -42 -29 -12 -56 -20 -59 -17 -3 4 -14 -1 -23 -9 -25 -21 -87 -48 -110
-48 -11 0 -23 -3 -27 -7 -4 -5 -11 -8 -15 -8 -4 0 -16 -8 -26 -18 -9 -10 -24
-16 -32 -13 -20 8 -71 -20 -110 -62 -32 -34 -33 -36 -17 -59 14 -23 14 -26
-10 -50 -47 -47 -31 -57 27 -18 29 21 37 23 37 10 0 -8 -11 -20 -25 -25 -22
-8 -36 -30 -19 -30 25 0 101 26 107 37 11 18 31 17 24 -1 -8 -21 65 -13 106
11 18 11 55 20 85 21 34 1 68 11 96 26 23 13 61 27 84 31 24 4 49 13 56 21 19
18 40 18 33 -1 -11 -26 12 -26 54 0 40 26 130 55 169 55 13 0 18 -5 14 -15 -9
-21 22 -19 38 3 7 10 32 24 54 31 36 12 46 11 74 -2 18 -10 43 -14 59 -11 26
5 28 4 26 -25 -2 -30 16 -43 30 -21 11 18 44 12 39 -7 -5 -23 4 -35 39 -51 19
-8 27 -18 23 -27 -4 -12 3 -13 42 -8 l47 6 -25 -21 c-25 -21 -25 -21 -3 -22
27 0 38 -16 19 -27 -12 -7 -9 -12 14 -28 35 -24 37 -31 9 -38 -29 -8 -21 -43
9 -40 25 3 29 -9 7 -27 -24 -20 -18 -25 29 -25 24 0 42 -3 40 -7 -3 -4 8 -11
23 -14 38 -10 67 -40 68 -70 0 -21 7 -29 35 -38 33 -10 35 -14 38 -61 2 -27 7
-52 11 -55 20 -12 22 -49 3 -67 -18 -18 -18 -19 1 -45 13 -18 20 -46 22 -87 1
-33 7 -67 13 -74 7 -7 9 -29 6 -49 -4 -20 -2 -44 4 -54 7 -13 6 -24 -5 -40
-12 -19 -12 -27 -2 -46 7 -13 12 -27 10 -33 -5 -16 -23 -147 -25 -185 -1 -24
4 -39 17 -48 13 -10 15 -17 8 -26 -6 -7 -11 -57 -12 -112 -1 -54 -2 -133 -4
-174 -2 -49 2 -81 10 -93 8 -12 15 -15 20 -8 3 6 10 9 15 6 10 -6 3 -59 -12
-89 -7 -12 -6 -22 1 -29 15 -15 14 -27 -4 -27 -22 0 -18 -37 6 -54 12 -8 18
-19 15 -25 -4 -5 3 -15 14 -21 25 -13 26 -29 3 -46 -17 -12 -17 -14 1 -45 18
-31 18 -33 1 -46 -21 -15 -39 -17 -31 -4 4 5 -3 7 -14 4 -21 -6 -18 -23 5 -23
7 0 23 -14 35 -30 19 -27 20 -31 5 -36 -9 -4 -24 1 -34 10 -25 23 -28 21 -28
-24 0 -22 3 -40 7 -40 4 0 12 -19 19 -41 13 -41 6 -58 -22 -59 -5 0 -7 -15 -6
-32 2 -18 -3 -46 -11 -61 -13 -26 -12 -30 3 -38 9 -6 17 -17 17 -25 0 -8 4
-13 9 -10 4 3 6 27 3 53 -2 26 -1 44 4 40 22 -21 21 -195 -2 -204 -18 -7 -18
-47 0 -63 8 -6 12 -18 9 -26 -14 -38 -45 9 -49 76 -4 66 -13 97 -24 80 -4 -7
-7 -22 -5 -32 2 -10 0 -18 -4 -18 -4 0 -7 -17 -5 -38 1 -20 2 -47 3 -59 1 -13
7 -23 15 -23 22 0 26 -27 7 -44 -10 -9 -26 -13 -39 -9 -27 7 -29 -12 -5 -39 9
-10 11 -18 6 -18 -6 0 -13 -14 -17 -31 -4 -22 -10 -30 -21 -25 -11 4 -15 -1
-15 -18 0 -17 -7 -26 -25 -30 -25 -6 -25 -6 -5 -26 27 -27 25 -38 -4 -33 -13
3 -26 14 -29 24 -7 25 -37 25 -37 0 0 -11 -6 -21 -12 -24 -9 -3 -7 -9 7 -20
18 -14 19 -17 4 -34 -11 -11 -14 -25 -10 -37 5 -14 10 -16 15 -8 13 21 25 3
22 -31 -2 -18 -11 -50 -20 -71 -9 -22 -14 -41 -12 -44 3 -2 -1 -17 -9 -31 -8
-17 -10 -33 -5 -41 6 -9 4 -20 -4 -30 -7 -8 -16 -22 -18 -30 -3 -10 -10 -5
-22 17 -15 29 -19 32 -36 21 -12 -8 -20 -24 -20 -40 0 -16 -5 -28 -11 -28 -7
0 -9 -9 -6 -21 4 -15 2 -19 -9 -15 -10 4 -14 0 -12 -12 4 -20 36 -55 61 -65
18 -7 24 -27 8 -27 -38 0 -101 48 -101 75 0 10 -3 15 -6 12 -4 -4 -20 3 -35
14 -26 18 -29 18 -29 4 0 -13 -6 -16 -25 -13 -29 6 -31 -5 -10 -55 8 -20 15
-42 15 -48 0 -20 -29 11 -47 50 -9 20 -18 38 -20 40 -1 2 -14 -7 -27 -22 -17
-18 -22 -33 -18 -52 4 -25 3 -26 -15 -16 -24 12 -48 88 -40 127 3 17 -1 32
-12 43 -10 10 -15 23 -13 29 2 7 -1 12 -7 12 -6 0 -11 7 -11 15 0 20 16 19 39
-4 25 -25 42 -30 64 -19 15 8 16 12 3 36 -22 45 -30 102 -13 102 8 0 18 -12
22 -27 l7 -28 13 25 c7 14 17 25 22 25 4 0 7 3 6 7 -2 5 1 8 6 8 5 0 11 9 14
20 3 11 12 20 21 20 15 0 9 16 -31 83 -2 4 -13 -3 -24 -15 l-19 -23 -24 27
c-27 30 -39 24 -36 -20 4 -51 1 -57 -15 -36 -15 18 -16 16 -13 -28 2 -27 2
-48 0 -48 -10 0 -40 40 -51 67 -7 18 -19 38 -27 44 -11 9 -14 7 -14 -14 0 -14
-6 -27 -13 -30 -13 -5 -14 11 -8 151 1 20 17 14 31 -13 15 -28 32 -32 49 -11
9 11 8 24 -2 54 -10 27 -11 44 -4 51 7 7 -7 12 -41 17 -39 5 -55 12 -67 31
-12 17 -22 22 -38 19 -12 -3 -16 -3 -9 0 16 8 15 44 -3 68 -15 20 -15 20 -16
0 -1 -10 0 -29 1 -41 2 -30 -23 -21 -41 15 -18 36 -48 80 -80 118 -21 25 -28
28 -35 17 -8 -13 -15 -12 -49 3 -22 10 -48 25 -57 33 -10 8 -18 11 -18 6 0 -4
-8 -1 -17 6 -11 10 -14 10 -9 2 4 -7 2 -13 -3 -13 -6 0 -11 5 -11 12 0 6 -3 8
-7 4 -4 -3 -13 4 -20 16 -12 22 -12 21 -13 -14 0 -21 -4 -38 -10 -38 -5 0 -10
-5 -10 -12 0 -6 3 -8 7 -5 7 8 43 -21 43 -35 0 -14 -27 -9 -41 8 -15 18 -39
81 -39 104 0 9 -10 31 -23 50 -26 39 -50 108 -46 130 4 29 -14 102 -27 107 -7
2 -28 -2 -46 -11 -34 -16 -99 -32 -175 -43 -35 -4 -43 -3 -43 10 0 25 33 75
58 89 33 17 45 43 27 58 -32 27 -121 -57 -132 -125 -5 -30 -2 -36 18 -44 22
-9 22 -10 3 -10 -22 -1 -49 -45 -39 -62 4 -5 2 -9 -4 -9 -5 0 -13 5 -16 10 -4
7 -13 6 -26 -1 -12 -6 -18 -13 -15 -16 3 -4 -3 -12 -13 -20 -15 -10 -19 -22
-15 -51 4 -29 3 -33 -5 -16 -13 30 -28 37 -35 18 -3 -8 -11 -12 -17 -9 -6 4
-13 -2 -16 -14 -3 -13 -12 -20 -22 -19 -10 2 -15 -3 -13 -13 1 -9 -4 -19 -13
-23 -8 -3 -15 -15 -15 -27 0 -21 -1 -22 -20 -4 -20 18 -20 17 -20 -9 0 -15 -4
-24 -10 -21 -5 3 -7 19 -3 35 5 27 3 30 -21 30 -21 0 -26 5 -26 25 0 26 -24
35 -34 13 -3 -7 -5 -2 -5 12 2 46 -12 69 -45 76 -17 4 -35 7 -40 5 -5 -1 -16
5 -25 13 -34 31 -85 44 -146 40 -33 -3 -91 -5 -130 -4 -87 0 -123 -13 -127
-48 -2 -14 -9 -27 -15 -30 -9 -2 -11 6 -7 30 l6 33 -17 -23 c-14 -19 -15 -25
-3 -39 10 -13 10 -17 1 -20 -7 -3 -13 -16 -13 -29 0 -13 -4 -24 -10 -24 -5 0
-10 -15 -10 -33 0 -21 -8 -41 -20 -52 -11 -10 -17 -22 -13 -28 4 -6 -4 -7 -21
-3 -21 5 -33 1 -57 -21 -31 -29 -37 -49 -17 -55 6 -2 -10 -25 -35 -51 -26 -25
-47 -51 -47 -56 0 -5 -15 -15 -34 -21 -19 -6 -37 -18 -40 -26 -4 -10 -13 -13
-26 -9 -15 5 -20 2 -20 -13 0 -11 -7 -25 -15 -32 -9 -8 -12 -17 -7 -24 5 -6
12 -28 15 -49 5 -33 2 -42 -18 -62 -14 -12 -25 -30 -25 -39 0 -9 -9 -21 -20
-28 -11 -7 -20 -18 -20 -25 0 -16 -26 -17 -36 -2 -3 6 -14 9 -24 6 -10 -2 -24
-1 -31 4 -11 8 -11 11 4 20 9 5 17 20 17 32 -1 20 -2 21 -14 5 -7 -10 -18 -18
-23 -18 -6 0 -16 -13 -23 -29 -6 -16 -18 -32 -26 -35 -8 -3 -14 -13 -14 -22 0
-16 22 -16 62 1 13 5 15 2 11 -16 -4 -12 -14 -30 -25 -41 -10 -10 -18 -24 -18
-32 0 -8 -7 -16 -15 -20 -9 -3 -15 -19 -15 -41 0 -23 -7 -41 -20 -52 -11 -10
-20 -23 -20 -30 0 -7 -6 -13 -14 -13 -21 0 -30 -20 -17 -33 19 -19 12 -26 -13
-14 -14 7 -27 20 -30 29 -2 10 -14 18 -26 18 -11 0 -19 4 -15 10 3 5 13 6 21
3 18 -7 35 13 28 32 -3 6 -20 18 -39 25 -28 11 -32 16 -23 28 9 10 9 18 1 31
-6 9 -14 31 -18 49 -5 25 -12 32 -31 32 -13 0 -24 4 -24 8 0 12 39 52 50 52 6
0 10 9 10 20 0 11 -5 20 -11 20 -13 0 -39 -25 -39 -39 0 -5 -5 -13 -11 -17 -8
-4 -9 3 -4 25 7 32 -8 44 -19 16 -3 -8 -12 -15 -21 -15 -8 0 -15 -8 -16 -17 0
-12 -2 -14 -6 -5 -3 8 5 28 17 45 22 29 22 31 5 43 -12 9 -22 10 -30 4 -6 -5
-16 -5 -24 -1 -9 6 -3 12 19 21 17 7 33 10 37 7 8 -8 43 11 43 24 0 5 -12 8
-27 7 -25 -3 -28 1 -31 30 -3 26 -7 32 -21 27 -12 -4 -21 2 -29 20 -6 14 -16
25 -21 25 -6 0 -18 16 -27 36 -15 30 -15 37 -3 45 12 8 6 13 -12 11 -23 -3
-14 96 16 171 7 17 -3 29 -64 79 -11 9 -11 12 3 20 14 8 15 12 1 38 -8 16 -15
36 -15 44 0 8 -6 16 -12 19 -9 3 -7 10 7 26 19 22 19 24 2 36 -9 6 -17 17 -17
24 0 6 -10 21 -21 32 -20 20 -21 26 -10 73 13 59 6 96 -18 96 -23 1 -59 31
-43 37 25 10 13 64 -20 94 -18 16 -38 29 -45 29 -18 0 -33 33 -26 58 3 15 13
22 29 22 28 0 32 24 7 39 -14 8 -14 10 -4 11 12 0 12 3 3 12 -7 7 -12 27 -12
46 0 20 -10 46 -25 66 -14 18 -25 39 -25 46 0 7 -8 22 -17 32 -19 22 -28 58
-13 58 12 0 13 52 1 103 -7 27 -5 48 4 70 7 18 11 43 8 57 -2 14 0 36 5 50 8
20 4 29 -21 55 -17 16 -36 30 -43 30 -8 0 -14 3 -14 8 -1 52 1 57 20 57 11 0
20 7 20 15 0 8 4 15 10 15 5 0 6 7 3 17 -4 11 -3 14 5 9 7 -4 12 -3 12 3 0 5
15 11 33 13 23 2 32 8 31 21 -1 12 5 17 22 17 19 0 26 -8 35 -42 7 -24 13 -63
13 -87 1 -53 29 -79 49 -46 7 11 14 29 17 40 5 15 18 22 58 28 50 8 63 22 42
43 -5 5 -12 35 -16 66 -5 46 -3 65 14 101 11 24 27 49 36 56 21 17 20 38 0 49
-24 14 -7 33 22 26 27 -7 31 2 10 25 -17 20 -36 153 -29 201 6 37 40 83 55 74
4 -3 23 4 42 15 42 26 71 28 61 4 -18 -42 -27 -103 -21 -135 15 -80 107 -162
197 -174 89 -12 173 37 220 129 25 49 21 115 -11 181 -11 23 -20 45 -20 49 0
14 32 6 52 -13 12 -11 34 -20 49 -20 14 0 32 -7 39 -15 7 -8 17 -15 22 -15 20
0 58 -55 53 -78 -4 -17 1 -25 20 -34 31 -14 37 -63 6 -55 -14 3 -23 -4 -34
-28 -9 -18 -25 -36 -36 -40 -50 -15 -2 -42 52 -29 17 5 37 9 42 9 26 2 115 38
125 50 12 14 3 65 -11 65 -5 0 -9 7 -9 15 0 8 5 15 11 15 5 0 8 4 4 10 -3 5
-12 7 -20 3 -11 -4 -13 -1 -9 11 4 10 -5 25 -25 43 -31 28 -43 35 -157 102
-33 19 -61 38 -65 43 -3 4 -43 24 -90 44 -46 19 -93 39 -104 44 -36 16 -220
33 -296 28 -83 -5 -165 -37 -213 -81 -16 -15 -34 -27 -40 -27 -6 0 -29 -30
-50 -66 -22 -36 -48 -71 -58 -77 -10 -7 -18 -18 -18 -25 0 -7 -4 -10 -10 -7
-5 3 -10 17 -10 31 0 19 -5 24 -25 24 -53 0 -87 -76 -47 -106 16 -11 15 -13
-10 -23 -27 -10 -41 -51 -18 -51 6 0 10 -5 10 -11 0 -6 7 -17 15 -25 8 -9 15
-26 15 -39 0 -12 7 -25 15 -29 17 -6 20 -42 5 -51 -15 -10 -12 -35 5 -35 8 0
15 -9 15 -19 0 -10 7 -21 15 -25 9 -3 12 -12 9 -21 -4 -9 -13 -14 -20 -11 -8
3 -14 2 -15 -2 -5 -44 -5 -52 3 -52 18 0 6 -19 -19 -30 -47 -19 -73 -34 -73
-42 0 -5 -7 -8 -15 -8 -9 0 -15 9 -15 24 0 17 -10 30 -35 45 -19 11 -36 26
-36 33 -8 68 -5 89 12 99 16 8 19 22 19 74 0 35 -5 76 -12 90 -10 22 -8 28 10
45 12 11 26 20 32 20 5 0 10 5 10 10 0 6 -7 10 -15 10 -8 0 -15 6 -15 14 0 8
7 16 15 20 8 3 15 13 15 22 0 10 -5 14 -15 11 -8 -4 -17 -2 -20 3 -4 6 1 10 9
10 23 0 20 27 -4 33 -12 3 -18 11 -15 19 3 8 -1 31 -10 51 -19 46 -19 47 3 47
16 1 16 1 0 14 -19 14 -25 61 -9 70 5 3 12 22 15 41 7 33 32 55 71 60 14 1 7
28 -11 41 -7 6 -14 14 -14 16 0 7 45 24 83 32 15 4 27 13 27 21 0 30 40 27
110 -9 79 -41 93 -33 24 14 -25 18 -43 34 -40 37 3 3 11 1 18 -4 21 -16 61
-23 74 -12 9 7 25 7 51 0 21 -6 70 -8 108 -4 39 3 77 5 85 4 8 0 56 -3 107 -5
51 -3 121 -12 155 -20 35 -9 88 -17 118 -20 30 -2 68 -9 83 -15 16 -6 39 -8
53 -5 17 4 24 2 24 -8 0 -20 37 -36 82 -36 32 0 40 5 57 34 16 26 17 34 6 34
-7 0 -20 6 -27 13 -12 13 -52 26 -87 29 -8 1 -16 10 -19 20 -2 10 -11 18 -19
18 -7 0 -25 11 -38 24 -13 13 -27 21 -30 18 -3 -4 -9 -1 -13 5 -20 31 -96 83
-123 83 -16 0 -40 7 -52 15 -13 8 -55 19 -96 25 -40 5 -82 16 -94 22 -27 15
-28 15 -77 17 -31 1 -38 4 -34 16 5 12 -3 15 -40 15 -25 0 -46 4 -46 9 0 5
-10 11 -21 14 -15 4 -20 11 -15 23 5 14 1 15 -29 10 -28 -6 -35 -4 -35 9 0 10
-10 15 -30 15 -19 0 -30 5 -30 14 0 11 -9 13 -35 10 -21 -2 -48 2 -67 12 -18
9 -42 14 -58 10 -22 -4 -29 0 -38 20 -7 14 -20 24 -32 24 -12 0 -30 5 -41 10
-15 8 -19 7 -19 -5 0 -8 -4 -15 -9 -15 -12 0 -20 55 -17 120 1 35 -3 60 -11
68 -17 18 -18 16 26 106 l38 79 -23 21 c-21 19 -22 25 -14 75 5 30 14 59 20
65 5 5 10 23 10 39 0 23 4 27 18 23 27 -9 68 40 51 60 -15 19 -23 174 -9 174
6 0 10 11 10 25 0 23 -2 24 -20 15 -16 -9 -25 -5 -50 18 -29 28 -39 52 -21 52
5 0 8 36 8 80 0 48 4 85 11 92 7 7 12 23 12 36 0 13 14 41 32 63 24 30 29 42
20 51 -15 15 -16 42 -2 33 13 -8 13 5 0 25 -6 10 -4 22 6 38 8 12 14 28 13 35
-3 28 2 38 28 48 20 7 23 13 15 21 -16 16 -15 38 1 38 7 0 22 6 33 14 19 14
19 15 0 50 -18 34 -18 35 4 68 13 18 28 38 34 43 6 6 19 27 29 48 16 36 19 38
53 31 34 -6 36 -6 25 14 -14 25 -1 35 34 26 19 -5 25 -2 25 9 0 38 23 67 59
73 20 4 37 6 39 6 1 -1 11 7 22 18 11 11 29 20 41 20 15 0 19 4 15 16 -3 9 -6
19 -6 24 0 5 -8 11 -17 13 -14 4 -12 5 5 6 12 0 22 -3 22 -9 0 -5 5 -10 10
-10 6 0 10 16 10 35 0 29 5 37 26 45 14 6 28 19 31 30 3 11 9 20 13 20 4 0 17
21 30 46 22 41 27 45 53 40 15 -3 43 1 62 8 22 9 36 11 43 4 11 -11 52 6 52
21 0 4 18 14 41 21 22 8 46 21 52 30 15 21 57 36 57 21 0 -6 8 -11 18 -11 10
0 27 -7 38 -15 47 -36 85 0 42 40 -14 13 -33 25 -43 26 -10 2 -17 9 -14 14 6
15 148 11 207 -7 l54 -16 -7 43 c-4 30 -2 46 6 51 7 4 15 2 17 -4 4 -14 52
-17 52 -4 0 5 12 14 26 21 19 8 23 15 16 24 -8 9 2 12 44 10 29 -1 53 1 53 5
-4 22 3 32 21 32 13 0 18 -5 14 -15z m746 -40 c0 -8 -2 -15 -4 -15 -2 0 -6 7
-10 15 -3 8 -1 15 4 15 6 0 10 -7 10 -15z m51 -65 c23 -13 25 -40 3 -40 -9 0
-14 6 -11 13 2 6 -3 17 -12 24 -20 15 -7 17 20 3z m699 -391 c0 -5 -7 -9 -15
-9 -15 0 -20 12 -9 23 8 8 24 -1 24 -14z m-3080 -1109 c0 -5 -7 -10 -15 -10
-8 0 -15 5 -15 10 0 6 7 10 15 10 8 0 15 -4 15 -10z m4712 -167 c22 -20 24
-76 2 -97 -19 -20 -54 -21 -79 -2 -27 19 -24 74 4 98 29 22 49 23 73 1z m-892
-169 c0 -8 -9 -14 -20 -14 -13 0 -20 7 -20 19 0 14 5 18 20 14 11 -3 20 -12
20 -19z m-3895 -64 c-5 -8 -11 -8 -17 -2 -6 6 -7 16 -3 22 5 8 11 8 17 2 6 -6
7 -16 3 -22z m21 -46 c26 7 34 -11 9 -20 -8 -4 -15 -16 -15 -29 0 -28 -22 -47
-44 -39 -20 8 -20 21 -1 40 8 9 16 30 16 47 1 19 3 24 6 14 4 -14 11 -17 29
-13z m-908 -300 c26 -18 30 -74 6 -98 -26 -26 -79 -20 -104 11 -51 65 29 136
98 87z m4857 -74 c-3 -5 -11 -10 -16 -10 -6 0 -7 5 -4 10 3 6 11 10 16 10 6 0
7 -4 4 -10z m-49 -14 c21 -22 17 -26 -25 -26 -34 0 -38 3 -34 20 6 23 38 26
59 6z m-506 -216 c0 -5 -5 -10 -11 -10 -5 0 -7 5 -4 10 3 6 8 10 11 10 2 0 4
-4 4 -10z m-30 -30 c0 -5 -7 -10 -15 -10 -8 0 -15 5 -15 10 0 6 7 10 15 10 8
0 15 -4 15 -10z m-2456 -641 c97 -35 96 -176 -2 -208 -48 -16 -74 -9 -112 32
-52 56 -37 144 29 171 44 18 47 19 85 5z m356 -193 c0 -3 -4 -8 -10 -11 -5 -3
-10 -1 -10 4 0 6 5 11 10 11 6 0 10 -2 10 -4z m-810 -156 c0 -5 -2 -10 -4 -10
-3 0 -8 5 -11 10 -3 6 -1 10 4 10 6 0 11 -4 11 -10z m3720 -256 c0 -8 -4 -14
-10 -14 -5 0 -10 9 -10 21 0 11 5 17 10 14 6 -3 10 -13 10 -21z m-4040 -220
c0 -16 -16 -19 -25 -4 -8 13 4 32 16 25 5 -4 9 -13 9 -21z m4425 -44 c3 -5 1
-10 -4 -10 -6 0 -11 5 -11 10 0 6 2 10 4 10 3 0 8 -4 11 -10z m-4375 -441 c0
-5 -4 -9 -10 -9 -5 0 -10 7 -10 16 0 8 5 12 10 9 6 -3 10 -10 10 -16z m20 -33
c0 -15 -14 -35 -21 -30 -15 9 -10 34 6 34 8 0 15 -2 15 -4z m124 -313 c-5 -5
-12 -12 -16 -18 -4 -6 -8 -2 -8 8 0 9 7 17 17 17 9 0 12 -3 7 -7z m2041 -363
c3 -5 1 -10 -4 -10 -6 0 -11 5 -11 10 0 6 2 10 4 10 3 0 8 -4 11 -10z m-55
-47 c-1 -27 -1 -27 -15 -9 -19 25 -19 36 0 36 10 0 15 -10 15 -27z m-24 -53
c8 0 14 -8 15 -17 0 -12 4 -8 11 10 5 15 14 27 19 27 12 0 12 -17 -1 -25 -5
-3 -10 -17 -10 -30 0 -18 -4 -22 -19 -18 -18 5 -42 43 -40 66 0 9 2 9 6 0 2
-7 11 -13 19 -13z m534 10 c0 -5 -4 -10 -10 -10 -5 0 -10 5 -10 10 0 6 5 10
10 10 6 0 10 -4 10 -10z m165 -10 c5 -8 11 -7 21 1 12 10 18 9 32 -5 16 -16
16 -17 0 -10 -12 4 -18 1 -18 -9 0 -14 -3 -14 -30 -1 -16 9 -30 20 -30 25 0
12 17 11 25 -1z m-565 -30 c0 -5 16 -26 36 -45 20 -20 37 -44 39 -53 2 -9 4
-17 5 -17 4 0 10 -53 10 -88 0 -23 4 -36 10 -32 6 3 10 1 10 -4 0 -6 7 -11 15
-11 20 0 19 -29 0 -36 -10 -4 -14 -14 -10 -28 4 -14 3 -17 -3 -8 -12 18 -37
-11 -28 -33 10 -27 46 0 46 35 0 17 4 30 9 30 13 0 22 42 11 55 -11 13 -39 95
-33 95 12 0 57 -43 69 -66 11 -21 11 -26 -1 -31 -9 -3 -15 -18 -15 -34 0 -22
5 -29 20 -29 15 0 20 -7 20 -25 0 -18 7 -28 26 -35 36 -14 37 -13 13 19 -15
21 -19 33 -12 46 9 15 14 14 45 -14 20 -17 42 -31 51 -31 8 0 18 -7 21 -16 3
-9 13 -14 21 -11 15 7 69 -49 60 -63 -3 -5 -24 -12 -48 -16 -23 -4 -44 -8 -47
-9 -3 -1 -48 -5 -101 -9 -53 -5 -102 -12 -108 -16 -7 -4 -32 -3 -55 3 -36 8
-61 5 -145 -16 -117 -30 -121 -32 -121 -55 0 -10 -12 -22 -29 -29 -31 -11 -58
-2 -47 16 4 7 -8 13 -34 17 -22 4 -43 11 -46 15 -3 5 -16 9 -30 9 -14 0 -36 7
-50 16 -33 22 -205 24 -231 3 -6 -6 -41 -11 -77 -11 -36 0 -66 -4 -66 -10 0
-5 -39 -8 -90 -6 -49 2 -90 6 -90 11 0 4 6 7 13 7 7 0 18 9 25 21 11 17 21 20
55 17 36 -3 42 0 42 17 0 16 8 21 42 23 37 3 43 0 55 -25 19 -40 44 -37 40 5
-4 36 20 82 42 82 20 0 45 33 52 68 8 40 24 42 24 3 0 -27 1 -28 25 -18 25 12
34 27 15 27 -18 0 -11 29 11 44 20 13 21 21 16 73 -3 32 -2 52 2 44 7 -10 10
-10 16 -1 4 7 3 15 -2 19 -14 9 -24 41 -13 41 5 0 13 -8 19 -17 8 -16 11 -14
22 11 l13 28 9 -24 9 -23 13 28 12 29 21 -50 c12 -28 22 -55 22 -61 0 -17 -22
-24 -30 -10 -6 9 -10 4 -15 -17 -3 -16 -10 -45 -15 -64 -12 -42 1 -60 30 -42
17 10 20 10 20 -2 0 -8 8 -20 18 -25 16 -10 16 -12 -2 -26 -18 -14 -18 -15 -1
-21 10 -4 26 -2 36 4 14 9 20 9 26 -2 4 -8 26 -21 48 -30 36 -15 41 -15 51 -1
6 8 23 15 37 15 19 0 25 4 21 15 -5 11 1 15 19 15 26 0 37 16 37 56 0 14 -5
23 -12 21 -16 -3 -11 45 5 55 8 5 5 18 -9 45 l-20 37 21 43 c20 42 45 60 66
48 6 -4 9 -16 6 -26 -3 -10 1 -23 9 -30 11 -9 14 -8 14 8 0 10 -6 28 -14 39
-13 17 -12 21 1 37 18 19 33 22 33 7z m724 -34 l24 -23 -37 1 c-24 1 -35 6
-33 14 1 8 -2 11 -7 8 -5 -3 -14 1 -21 9 -22 27 47 19 74 -9z m-1281 -96 c-3
-11 -7 -20 -9 -20 -2 0 -4 9 -4 20 0 11 4 20 9 20 5 0 7 -9 4 -20z m2257 -10
c0 -5 -7 -10 -15 -10 -8 0 -15 5 -15 10 0 6 7 10 15 10 8 0 15 -4 15 -10z
m-1440 -20 c0 -5 -2 -10 -4 -10 -3 0 -8 5 -11 10 -3 6 -1 10 4 10 6 0 11 -4
11 -10z m340 -21 c0 -6 -4 -7 -10 -4 -5 3 -10 11 -10 16 0 6 5 7 10 4 6 -3 10
-11 10 -16z m-1221 -36 c0 -25 -1 -25 -8 -8 -5 11 -7 23 -4 28 8 14 13 7 12
-20z m84 2 c-3 -9 -8 -14 -10 -11 -3 3 -2 9 2 15 9 16 15 13 8 -4z m-33 -25
c0 -5 -4 -10 -10 -10 -5 0 -10 5 -10 10 0 6 5 10 10 10 6 0 10 -4 10 -10z
m-86 -95 c-19 -29 -23 -31 -20 -9 2 13 22 33 34 34 1 0 -5 -11 -14 -25z m1436
3 c1 -42 65 -97 89 -77 8 6 8 5 1 -3 -6 -7 -4 -23 5 -46 18 -41 18 -42 4 -42
-16 0 -38 31 -39 53 0 13 -5 17 -17 13 -52 -15 -73 -17 -73 -7 0 6 -6 8 -14 5
-14 -5 -26 23 -26 64 0 23 0 23 25 -5 20 -23 26 -25 34 -14 6 9 6 24 0 38 -12
31 -11 43 1 43 6 0 10 -10 10 -22z m-2670 -13 c0 -18 -4 -23 -15 -19 -16 6
-20 26 -8 37 13 14 23 6 23 -18z m667 -40 c-9 -8 -17 -20 -19 -27 -2 -6 -10
-8 -16 -4 -15 9 -16 36 -2 36 6 0 10 5 10 11 0 7 8 18 18 25 15 11 17 10 20
-7 2 -10 -3 -26 -11 -34z m1630 49 c-3 -3 -12 -4 -19 -1 -8 3 -5 6 6 6 11 1
17 -2 13 -5z m1153 -20 c0 -16 -16 -19 -25 -4 -8 13 4 32 16 25 5 -4 9 -13 9
-21z m-2600 -15 c0 -17 -6 -37 -14 -44 -12 -12 -15 -10 -19 18 -5 31 6 57 24
57 5 0 9 -14 9 -31z m1496 14 c16 -22 17 -33 4 -33 -5 0 -10 7 -10 15 0 8 -7
15 -15 15 -8 0 -15 5 -15 10 0 16 22 12 36 -7z m364 7 c0 -5 -2 -10 -4 -10 -3
0 -8 5 -11 10 -3 6 -1 10 4 10 6 0 11 -4 11 -10z m-296 -16 c23 -9 20 -24 -4
-24 -11 0 -20 7 -20 15 0 17 2 18 24 9z m-1504 -14 c0 -5 -5 -10 -11 -10 -5 0
-7 5 -4 10 3 6 8 10 11 10 2 0 4 -4 4 -10z m1630 -4 c0 -2 -7 -7 -16 -10 -8
-3 -12 -2 -9 4 6 10 25 14 25 6z m-2540 -26 c0 -5 -4 -10 -9 -10 -6 0 -13 5
-16 10 -3 6 1 10 9 10 9 0 16 -4 16 -10z m795 -50 c-15 -16 -16 -25 -7 -44 9
-19 8 -25 -4 -30 -11 -4 -13 -15 -8 -41 4 -23 2 -35 -5 -35 -6 0 -11 5 -11 10
0 6 -7 10 -16 10 -11 0 -14 5 -9 18 4 9 10 25 12 35 3 9 9 17 13 17 4 0 10 18
14 40 4 28 11 40 23 40 14 0 14 -2 -2 -20z m2039 -34 c-3 -14 -11 -26 -16 -26
-6 0 -8 10 -4 23 3 12 6 29 6 37 0 10 3 11 11 3 5 -5 7 -22 3 -37z m-1944 20
c0 -15 -14 -35 -21 -30 -15 9 -10 34 6 34 8 0 15 -2 15 -4z m1694 -31 c20 -30
46 -33 53 -6 8 29 28 15 43 -29 7 -22 24 -49 36 -61 13 -13 24 -27 24 -32 0
-5 8 -16 18 -24 16 -13 16 -13 -3 -11 -26 4 -28 -35 -2 -40 10 -2 17 3 17 12
0 33 30 14 55 -33 14 -28 14 -35 3 -42 -10 -7 -8 -12 10 -24 12 -9 22 -25 22
-36 0 -10 5 -19 10 -19 15 0 1 -52 -18 -67 -12 -10 -13 -15 -2 -28 17 -21 6
-30 -13 -10 -9 8 -18 15 -22 15 -8 0 5 -43 16 -50 4 -3 11 -18 14 -33 9 -35
-8 -36 -38 -1 -12 14 -37 27 -54 30 -28 4 -33 2 -33 -15 0 -11 12 -29 28 -41
24 -20 27 -20 30 -5 3 15 6 14 18 -4 9 -12 24 -21 34 -21 10 0 22 -4 25 -10 3
-5 15 -10 27 -10 17 0 18 3 8 15 -7 8 -17 12 -23 8 -6 -4 -7 -1 -2 7 4 7 8 26
7 41 0 16 4 31 9 35 12 7 41 -15 34 -26 -10 -17 7 -41 25 -35 26 8 86 -51 105
-104 8 -24 15 -45 15 -46 0 -1 -11 0 -25 3 -18 3 -25 0 -25 -12 0 -9 7 -19 15
-22 20 -8 19 -24 -1 -24 -31 0 -7 -25 25 -26 18 -1 37 -6 44 -13 9 -10 6 -11
-16 -6 -18 5 -34 2 -45 -7 -34 -29 -42 -30 -52 -4 -11 29 -28 34 -37 10 -5
-13 -8 -12 -25 5 -10 12 -28 21 -39 21 -21 0 -19 -10 7 -40 8 -9 10 -21 5 -29
-7 -10 -15 -4 -34 26 -14 22 -25 48 -24 59 2 15 -6 20 -33 22 -19 2 -40 8 -47
13 -7 7 -18 6 -32 -3 -19 -12 -24 -10 -52 20 -29 31 -72 42 -69 17 2 -15 -32
-24 -67 -18 -26 4 -33 2 -33 -10 0 -9 5 -19 11 -22 6 -4 14 -17 19 -29 9 -21
9 -21 9 2 1 21 4 22 39 16 48 -9 54 -12 50 -34 -3 -20 36 -60 59 -60 7 0 13
-4 13 -10 0 -5 -9 -10 -19 -10 -23 0 -36 -16 -21 -25 15 -9 12 -25 -5 -25 -8
0 -15 4 -15 10 0 5 -16 12 -35 16 -19 3 -35 10 -35 15 0 5 -7 9 -15 9 -8 0
-15 4 -15 8 0 4 -9 8 -20 8 -26 0 -26 -27 -1 -50 11 -10 17 -25 14 -36 -4 -14
2 -21 23 -26 18 -5 29 -3 32 4 2 7 20 12 40 12 30 0 44 -7 69 -35 18 -19 34
-35 36 -35 2 0 2 14 -1 30 -8 57 30 25 48 -40 6 -23 9 -44 7 -47 -6 -6 -41 12
-59 30 -7 8 -37 17 -67 21 -48 6 -53 5 -58 -14 -6 -24 -28 -26 -37 -4 -4 9 -9
15 -11 12 -14 -13 10 -38 35 -38 16 0 30 -7 34 -15 8 -23 26 -18 26 8 l1 22
21 -25 20 -25 -21 -3 c-26 -4 -26 -7 -1 -34 18 -20 28 -68 14 -68 -3 0 -17 9
-31 20 -30 23 -52 16 -28 -10 9 -10 19 -34 22 -54 5 -34 4 -36 -21 -36 -19 0
-26 5 -26 20 0 15 -7 20 -25 20 -31 0 -32 -16 -2 -40 22 -19 22 -19 -22 -13
l-43 6 6 -34 c8 -37 7 -37 -44 31 l-19 25 -1 -23 c0 -12 7 -34 16 -47 9 -14
12 -25 7 -25 -6 0 -20 -20 -33 -45 -24 -46 -34 -53 -46 -33 -4 6 1 17 11 24
25 18 4 43 -36 42 -17 -1 -35 4 -41 10 -7 7 -16 12 -22 12 -6 0 -5 -5 2 -12
17 -17 15 -36 -5 -34 -12 1 -19 -9 -23 -29 l-5 -30 -21 36 c-13 21 -18 42 -14
49 11 17 -26 51 -58 53 -15 1 -37 14 -50 30 -34 39 -45 34 -40 -18 3 -25 2
-47 -2 -50 -9 -6 -60 40 -60 55 0 5 -7 10 -16 10 -12 0 -15 -6 -9 -22 3 -13 9
-34 12 -47 4 -14 17 -28 35 -35 22 -8 31 -20 39 -51 6 -22 15 -48 20 -57 9
-19 -1 -31 -17 -20 -6 4 -15 23 -20 42 -7 25 -16 36 -32 38 -17 3 -23 12 -28
41 -7 42 -24 48 -51 19 -14 -16 -15 -22 -4 -40 12 -19 11 -20 -18 -13 -38 8
-41 -10 -10 -46 17 -20 18 -25 6 -27 -18 -4 -57 27 -57 44 0 7 -7 14 -15 18
-11 4 -15 -2 -15 -28 0 -49 -11 -96 -21 -90 -5 3 -9 27 -9 53 0 27 -3 62 -6
78 l-6 30 -24 -24 c-27 -26 -30 -53 -12 -83 10 -16 10 -23 -4 -36 -15 -15 -16
-14 -23 15 -4 17 -11 31 -16 31 -5 0 -9 5 -9 11 0 11 -24 39 -34 39 -3 0 -6
-6 -6 -14 0 -7 -6 -18 -13 -24 -16 -13 -22 -82 -7 -82 5 0 10 9 10 19 0 27 15
34 30 15 9 -10 10 -18 2 -26 -12 -12 4 -68 19 -68 5 0 9 -4 9 -10 0 -19 -31
-10 -40 13 l-9 22 -7 -22 c-8 -30 -22 -29 -36 2 -14 30 -32 28 -36 -4 -3 -21
-8 -23 -42 -18 -28 4 -40 1 -44 -10 -5 -13 -8 -13 -21 1 -8 8 -15 19 -15 25 0
7 -9 7 -26 -1 -20 -9 -27 -9 -34 1 -6 11 -10 9 -19 -7 -15 -28 -41 -18 -41 15
0 22 -2 24 -15 13 -8 -7 -15 -19 -15 -26 0 -8 -9 -14 -20 -14 -11 0 -20 5 -20
11 0 6 -11 8 -27 5 -23 -5 -35 1 -66 29 -22 20 -43 32 -52 29 -12 -5 -15 2
-15 31 0 35 -2 37 -26 31 -20 -5 -27 -3 -31 14 -5 20 -23 28 -23 10 0 -5 -13
-10 -30 -10 -32 0 -37 9 -18 28 9 9 4 14 -20 23 -23 8 -32 17 -32 32 0 40 -14
50 -56 43 -35 -7 -37 -6 -23 10 8 10 22 26 32 36 33 34 18 50 -21 22 -27 -19
-80 -10 -89 14 -8 20 -46 58 -65 64 -7 3 -13 13 -13 24 0 12 -6 18 -17 18 -10
-1 -18 4 -18 12 0 8 -9 23 -21 35 -11 11 -18 27 -15 34 4 10 -4 12 -32 8 -20
-3 -43 -10 -50 -16 -18 -14 -25 -2 -12 22 9 17 8 22 -4 27 -11 4 -13 14 -9 36
6 28 4 30 -18 23 -13 -4 -32 -14 -42 -23 -30 -26 -42 0 -12 28 14 13 25 30 25
39 0 8 10 25 22 38 27 29 20 36 -37 37 -25 0 -45 1 -45 3 0 2 10 13 21 24 16
16 18 23 9 29 -8 5 -4 15 14 33 14 14 26 33 26 42 0 16 -21 16 -82 -1 -10 -3
-18 -1 -18 3 0 18 25 33 55 33 17 0 36 5 42 11 9 9 10 7 6 -10 -6 -24 9 -28
27 -6 10 12 16 13 26 4 19 -15 18 1 -2 29 -12 17 -12 22 -2 22 24 0 72 63 75
99 3 50 9 60 32 54 12 -3 21 -2 21 2 0 14 -38 54 -45 47 -4 -4 -5 7 -1 23 4
17 12 32 17 34 6 2 14 14 19 26 7 17 14 22 29 18 17 -4 21 -1 21 20 0 13 3 39
6 57 6 30 5 32 -15 25 -15 -5 -21 -2 -21 9 0 19 -21 21 -38 4 -7 -7 -12 -8
-12 -2 0 18 48 57 60 49 7 -4 14 2 17 14 7 29 20 26 28 -6 12 -51 45 -68 45
-23 0 26 29 52 50 45 10 -3 21 -2 24 4 3 5 15 7 25 4 10 -3 22 0 25 6 11 16
46 13 46 -4 0 -8 9 -15 20 -15 11 0 20 -7 20 -15 0 -23 17 -18 23 6 6 21 10
21 74 15 187 -18 252 -19 277 -3 20 14 26 14 42 2 14 -10 22 -10 32 -2 10 8
21 6 43 -7 23 -14 33 -15 44 -6 11 9 18 8 31 -5 9 -9 20 -13 23 -8 3 5 33 9
66 8 37 0 66 5 77 14 11 8 29 11 47 8 20 -4 31 -2 35 8 3 9 18 15 35 15 20 0
36 8 49 25 23 30 29 30 54 8 17 -15 19 -15 33 3 13 17 14 17 15 2 0 -10 5 -18
11 -18 7 0 17 -7 23 -15 10 -12 19 -11 71 10 33 14 67 25 76 25 9 0 31 10 50
23 19 12 55 31 80 40 26 10 55 27 64 37 11 12 31 20 49 20 17 0 36 4 43 8 6 4
32 8 56 10 38 2 47 -2 61 -23z m-2525 -14 c-13 -11 -28 -16 -33 -11 -14 13 3
30 31 30 l25 0 -23 -19z m1844 2 c-7 -2 -19 -2 -25 0 -7 3 -2 5 12 5 14 0 19
-2 13 -5z m858 -30 c-8 -15 -10 -15 -11 -2 0 17 10 32 18 25 2 -3 -1 -13 -7
-23z m699 -17 c-12 -12 -15 -8 -25 24 -8 25 -8 25 14 6 14 -13 18 -23 11 -30z
m-640 -11 c5 -14 16 -25 24 -25 19 0 30 -48 15 -66 -16 -20 -32 -6 -26 24 4
19 -2 33 -19 49 -25 23 -31 43 -14 43 6 0 15 -11 20 -25z m-2190 -59 c0 -8 -7
-16 -15 -20 -8 -3 -15 -16 -15 -29 0 -27 -9 -39 -22 -31 -5 3 -4 12 2 19 8 10
8 20 2 32 -8 13 -6 20 6 30 23 17 42 16 42 -1z m60 -25 c0 -6 -4 -13 -10 -16
-5 -3 -10 1 -10 9 0 9 5 16 10 16 6 0 10 -4 10 -9z m-170 -44 c0 -28 -29 -73
-30 -45 0 9 4 19 9 22 5 3 7 15 4 26 -3 11 0 20 6 20 6 0 11 -10 11 -23z m-63
-9 c-3 -8 -6 -5 -6 6 -1 11 2 17 5 13 3 -3 4 -12 1 -19z m7 -90 c-1 -18 -3
-39 -3 -46 -1 -17 -21 -5 -21 13 0 16 18 65 24 65 2 0 2 -15 0 -32z m67 -11
c-8 -8 -11 -7 -11 4 0 20 13 34 18 19 3 -7 -1 -17 -7 -23z m-171 -24 c-11 -17
-11 -17 -6 0 3 10 6 24 7 30 0 9 2 9 5 0 3 -7 0 -20 -6 -30z m207 -45 c-3 -8
-6 -5 -6 6 -1 11 2 17 5 13 3 -3 4 -12 1 -19z m43 -53 c-7 -9 -15 -13 -17 -11
-7 7 7 26 19 26 6 0 6 -6 -2 -15z m2586 -15 c0 -8 -2 -19 -4 -23 -6 -12 -32
13 -32 30 0 19 35 12 36 -7z m-2761 -61 c-10 -15 -25 -10 -19 6 4 8 10 12 15
9 5 -3 7 -10 4 -15z m2685 -89 c0 -5 -4 -10 -10 -10 -5 0 -10 5 -10 10 0 6 5
10 10 10 6 0 10 -4 10 -10z m-47 -20 c-3 -12 -8 -19 -11 -16 -5 6 5 36 12 36
2 0 2 -9 -1 -20z m-2485 -9 c3 -8 -1 -12 -9 -9 -7 2 -15 10 -17 17 -3 8 1 12
9 9 7 -2 15 -10 17 -17z m2517 -57 c9 -15 12 -23 6 -20 -11 7 -35 46 -28 46 3
0 12 -12 22 -26z m-313 -102 c-7 -2 -12 -10 -12 -18 0 -8 -7 -14 -15 -14 -8 0
-15 5 -15 11 0 7 -10 9 -25 5 -14 -4 -25 -2 -25 3 0 13 25 20 49 14 12 -3 21
-1 21 6 0 6 7 8 17 4 11 -4 12 -8 5 -11z m-635 -574 c-3 -8 -6 -5 -6 6 -1 11
2 17 5 13 3 -3 4 -12 1 -19z m23 -28 c0 -5 -4 -10 -10 -10 -5 0 -10 5 -10 10
0 6 5 10 10 10 6 0 10 -4 10 -10z m310 -9 c0 -6 -4 -13 -10 -16 -5 -3 -10 1
-10 9 0 9 5 16 10 16 6 0 10 -4 10 -9z m-150 -41 c0 -5 -2 -10 -4 -10 -3 0 -8
5 -11 10 -3 6 -1 10 4 10 6 0 11 -4 11 -10z m-336 -166 c9 -22 8 -24 -9 -24
-8 0 -15 9 -15 20 0 24 15 27 24 4z m-205 -36 c9 -16 9 -19 1 -11 -9 9 -17 9
-31 0 -21 -13 -34 -4 -26 18 9 22 40 18 56 -7z"/>
<path d="M5430 9740 c0 -11 7 -20 15 -20 17 0 18 2 9 24 -9 23 -24 20 -24 -4z"/>
<path d="M4920 9730 c0 -5 9 -10 20 -10 11 0 20 5 20 10 0 6 -9 10 -20 10 -11
0 -20 -4 -20 -10z"/>
<path d="M5145 9690 c-10 -17 4 -62 18 -57 18 5 20 42 3 56 -10 9 -16 9 -21 1z"/>
<path d="M4551 9623 c0 -4 4 -17 9 -28 8 -19 9 -19 9 2 1 12 -3 25 -9 28 -5 3
-10 3 -9 -2z"/>
<path d="M5656 9584 c-10 -25 -7 -64 5 -64 5 0 7 5 4 10 -7 12 12 40 27 40 6
0 8 -9 5 -20 -7 -29 9 -34 33 -10 17 17 18 21 5 26 -8 4 -15 12 -15 20 0 20
-56 18 -64 -2z"/>
<path d="M4297 9533 c-11 -10 13 -32 29 -26 11 4 12 9 3 19 -13 15 -22 18 -32
7z"/>
<path d="M3600 8835 c0 -18 5 -25 18 -25 26 0 33 10 21 31 -14 28 -39 24 -39
-6z"/>
<path d="M6842 8628 c6 -18 28 -21 28 -4 0 9 -7 16 -16 16 -9 0 -14 -5 -12
-12z"/>
<path d="M6860 8390 c0 -5 5 -10 10 -10 6 0 10 5 10 10 0 6 -4 10 -10 10 -5 0
-10 -4 -10 -10z"/>
<path d="M5660 6845 c0 -9 6 -12 15 -9 8 4 12 10 9 15 -8 14 -24 10 -24 -6z"/>
<path d="M5615 6827 c-4 -10 -5 -21 -1 -24 10 -10 18 4 13 24 -4 17 -4 17 -12
0z"/>
<path d="M6267 6809 c-110 -16 -182 -47 -255 -112 -27 -23 -60 -51 -73 -63
-69 -60 -92 -98 -103 -177 -13 -84 -12 -84 134 -103 14 -2 39 -6 56 -9 21 -4
35 -1 43 9 16 19 6 36 -19 36 -10 0 -25 9 -34 21 -10 15 -20 19 -35 14 -16 -5
-23 0 -32 18 -26 57 125 280 176 261 8 -4 23 0 32 7 15 13 16 11 9 -11 -33
-116 -12 -199 65 -260 110 -86 246 -59 323 65 38 59 40 120 7 188 -12 26 -21
51 -19 56 1 5 21 1 43 -9 23 -11 50 -16 63 -13 18 4 32 -3 57 -28 19 -19 35
-40 35 -46 0 -7 4 -13 9 -13 21 0 21 -43 0 -100 -12 -33 -26 -63 -30 -66 -5
-3 -9 -12 -9 -20 0 -17 26 -19 33 -1 4 9 8 9 15 -2 8 -11 11 -9 14 10 5 23 5
22 17 -8 7 -18 16 -33 21 -33 4 0 10 -14 14 -30 3 -19 14 -34 29 -39 12 -5 29
-16 36 -25 18 -22 27 -20 36 7 6 21 7 20 16 -10 12 -42 24 -48 54 -26 29 21
32 49 6 56 -18 4 -38 54 -26 65 8 8 57 -47 72 -81 10 -21 20 -27 43 -27 20 0
30 5 30 15 0 8 -4 15 -10 15 -18 0 -40 72 -40 135 0 48 -4 66 -19 79 -10 9
-22 16 -27 15 -15 -4 -74 35 -79 52 -13 40 -127 135 -192 160 -79 31 -139 39
-281 38 -81 -1 -173 -5 -205 -10z m142 -155 c27 -22 31 -33 31 -73 0 -37 -5
-52 -22 -68 -61 -55 -107 -57 -154 -7 -38 40 -44 77 -18 125 28 55 112 67 163
23z m-470 -228 c9 -10 9 -16 1 -21 -12 -7 -40 11 -40 26 0 14 26 10 39 -5z"/>
<path d="M6287 6635 c-75 -70 16 -178 97 -114 20 16 26 29 26 59 0 30 -6 43
-26 59 -35 28 -63 26 -97 -4z"/>
<path d="M7220 6680 c-12 -8 -10 -10 8 -10 13 0 20 4 17 10 -7 12 -6 12 -25 0z"/>
<path d="M3405 6380 c-8 -13 4 -32 16 -25 12 8 12 35 0 35 -6 0 -13 -4 -16
-10z"/>
<path d="M4950 6249 c0 -11 4 -18 10 -14 5 3 7 12 3 20 -7 21 -13 19 -13 -6z"/>
<path d="M6885 6250 c4 -6 11 -8 16 -5 14 9 11 15 -7 15 -8 0 -12 -5 -9 -10z"/>
<path d="M6008 6222 c-22 -4 -23 -21 -3 -28 21 -9 33 -1 26 16 -3 9 -14 14
-23 12z"/>
<path d="M5912 6176 c-32 -18 -37 -25 -13 -19 14 4 21 1 21 -9 0 -11 7 -14 25
-10 27 5 32 21 13 40 -14 14 -16 14 -46 -2z"/>
<path d="M6112 6118 c6 -18 28 -21 28 -4 0 9 -7 16 -16 16 -9 0 -14 -5 -12
-12z"/>
<path d="M4692 6111 c-17 -10 -12 -43 7 -49 9 -3 11 0 6 8 -6 10 -4 12 7 7 12
-4 14 -1 11 13 -3 12 2 20 14 23 13 3 11 5 -7 6 -14 0 -31 -3 -38 -8z"/>
<path d="M4630 6011 c0 -5 -7 -11 -15 -13 -8 -2 -11 -8 -7 -14 5 -8 13 -4 25
12 10 13 13 24 7 24 -5 0 -10 -4 -10 -9z"/>
<path d="M3454 5784 c-10 -38 10 -74 41 -74 16 0 25 6 25 15 0 8 -4 15 -10 15
-5 0 -16 16 -24 35 -18 42 -24 43 -32 9z"/>
<path d="M4890 5617 c0 -9 -9 -21 -20 -27 -28 -15 -46 -50 -29 -60 7 -5 19 -6
26 -3 12 5 13 -3 7 -43 -8 -57 -32 -95 -55 -88 -20 5 -35 -12 -44 -49 -5 -17
-13 -26 -20 -23 -15 5 -27 -41 -13 -50 9 -6 8 -103 -2 -109 -10 -6 -4 -98 11
-138 10 -30 11 -39 0 -49 -10 -11 -15 -9 -26 6 -16 21 -35 14 -35 -14 0 -13 5
-17 20 -13 29 8 51 -24 38 -53 -6 -13 -7 -35 -3 -51 l8 -28 9 35 c5 19 9 43 9
53 0 10 8 17 19 17 10 0 22 5 26 12 5 7 2 9 -8 5 -26 -9 -30 41 -5 69 11 13
26 24 33 24 8 0 19 10 25 23 14 26 45 57 57 57 5 0 15 7 23 16 10 13 10 19 0
36 -10 15 -10 22 -1 28 7 4 10 24 7 48 -2 23 1 46 7 52 7 7 5 10 -7 10 -9 0
-17 -6 -17 -12 0 -10 -2 -10 -9 0 -4 7 -6 24 -3 38 2 14 0 24 -7 24 -6 0 -11
7 -11 15 0 8 9 15 20 15 11 0 20 5 20 11 0 6 -7 9 -15 6 -24 -10 -27 10 -6 44
16 25 17 35 8 50 -7 11 -19 19 -27 20 -11 0 -11 2 -2 6 7 3 19 0 26 -7 9 -7
16 -7 20 -1 4 6 -3 15 -14 21 -26 14 -42 52 -26 62 8 5 7 11 -2 20 -9 9 -12 9
-12 -5z m-64 -562 c-7 -18 -26 -20 -26 -2 0 18 24 41 28 27 2 -6 1 -17 -2 -25z"/>
<path d="M5010 5579 c0 -5 5 -7 10 -4 6 3 10 8 10 11 0 2 -4 4 -10 4 -5 0 -10
-5 -10 -11z"/>
<path d="M5012 5530 c0 -14 2 -19 5 -12 2 6 2 18 0 25 -3 6 -5 1 -5 -13z"/>
<path d="M4800 5527 c0 -9 -10 -12 -30 -9 -28 4 -30 2 -30 -26 0 -23 6 -32 22
-38 13 -4 24 -2 26 5 2 6 10 11 18 11 9 0 14 11 14 35 0 19 -4 35 -10 35 -5 0
-10 -6 -10 -13z"/>
<path d="M5037 5437 c-6 -16 22 -87 34 -87 5 0 9 23 9 50 0 42 -3 50 -19 50
-10 0 -21 -6 -24 -13z"/>
<path d="M5826 5433 c-4 -9 -2 -21 4 -27 6 -6 4 -16 -8 -29 -13 -15 -14 -21
-4 -24 12 -5 45 -59 40 -66 -8 -10 27 -37 47 -37 16 0 27 -9 37 -30 15 -35 33
-39 33 -7 1 12 4 32 9 44 5 18 1 28 -18 46 -27 25 -40 96 -24 130 9 18 1 21
-26 11 -9 -3 -16 -15 -16 -25 0 -24 -15 -24 -32 -1 -20 28 -35 34 -42 15z"/>
<path d="M4985 5377 c-11 -9 -15 -19 -10 -27 4 -7 2 -16 -6 -21 -10 -6 -8 -9
9 -9 27 0 46 -38 29 -59 -9 -10 -5 -19 18 -37 27 -21 55 -31 55 -20 0 3 -9 21
-21 40 -19 32 -19 37 -5 42 9 3 16 13 16 22 0 13 -3 12 -14 -4 -8 -10 -18 -16
-22 -12 -11 12 -14 57 -3 63 5 4 3 13 -5 21 -18 17 -18 17 -41 1z"/>
<path d="M5662 5329 c2 -6 8 -10 13 -10 5 0 11 4 13 10 2 6 -4 11 -13 11 -9 0
-15 -5 -13 -11z"/>
<path d="M7190 5240 c0 -5 5 -10 10 -10 6 0 10 5 10 10 0 6 -4 10 -10 10 -5 0
-10 -4 -10 -10z"/>
<path d="M5156 5204 c-3 -9 -4 -20 0 -25 3 -5 1 -9 -5 -9 -5 0 -13 5 -16 10
-11 17 -37 -18 -30 -40 9 -27 27 -25 59 6 28 28 29 33 20 58 -8 20 -20 20 -28
0z"/>
<path d="M5877 5193 c-11 -10 -8 -43 3 -43 6 0 10 11 10 25 0 26 -2 29 -13 18z"/>
<path d="M6097 5073 c-3 -5 1 -19 8 -33 9 -17 10 -29 2 -41 -12 -20 -2 -52 16
-46 6 2 11 13 9 23 -1 10 -4 37 -6 59 -4 37 -18 56 -29 38z"/>
<path d="M3556 5031 c-6 -10 33 -23 46 -15 4 3 8 9 8 15 0 12 -47 12 -54 0z"/>
<path d="M4837 5013 c-4 -3 -7 -15 -7 -26 0 -16 3 -17 15 -7 8 7 15 19 15 26
0 15 -12 19 -23 7z"/>
<path d="M4900 5000 c0 -5 7 -10 16 -10 8 0 12 5 9 10 -3 6 -10 10 -16 10 -5
0 -9 -4 -9 -10z"/>
<path d="M7410 4930 c0 -5 5 -10 10 -10 6 0 10 5 10 10 0 6 -4 10 -10 10 -5 0
-10 -4 -10 -10z"/>
<path d="M7155 4881 c-7 -12 12 -24 25 -16 11 7 4 25 -10 25 -5 0 -11 -4 -15
-9z"/>
<path d="M7270 4726 c0 -9 5 -16 10 -16 6 0 10 4 10 9 0 6 -4 13 -10 16 -5 3
-10 -1 -10 -9z"/>
<path d="M7246 4692 c-7 -12 22 -38 31 -28 4 3 0 14 -9 22 -9 10 -18 12 -22 6z"/>
<path d="M3744 4587 c-8 -21 1 -47 16 -47 19 0 23 31 7 48 -15 14 -17 14 -23
-1z"/>
<path d="M7425 4521 c-3 -5 -1 -12 5 -16 5 -3 10 1 10 9 0 18 -6 21 -15 7z"/>
<path d="M7174 4495 c-18 -13 -17 -14 14 -21 18 -4 41 -18 52 -31 18 -24 50
-26 50 -5 0 13 -36 43 -53 46 -8 1 -21 7 -29 14 -11 9 -19 9 -34 -3z"/>
<path d="M7143 4433 c-15 -5 -18 -33 -4 -33 5 0 11 -12 13 -27 2 -17 9 -28 18
-28 21 0 25 36 6 47 -11 6 -15 16 -11 29 6 19 1 22 -22 12z"/>
<path d="M7230 4375 c0 -15 6 -25 14 -25 8 0 22 -7 31 -16 17 -18 49 -11 42 9
-2 6 -12 12 -23 12 -10 0 -23 10 -29 23 -13 30 -35 28 -35 -3z"/>
<path d="M7230 4300 c11 -20 40 -28 40 -10 0 9 -31 30 -45 30 -3 0 -1 -9 5
-20z"/>
<path d="M7300 4290 c0 -5 5 -10 11 -10 5 0 7 5 4 10 -3 6 -8 10 -11 10 -2 0
-4 -4 -4 -10z"/>
<path d="M3772 4263 c2 -12 14 -18 38 -20 l35 -2 -24 19 c-29 25 -54 26 -49 3z"/>
<path d="M4550 4260 c-9 -6 -10 -10 -3 -10 6 0 15 5 18 10 8 12 4 12 -15 0z"/>
<path d="M6590 4258 c1 -20 80 -72 80 -53 0 22 -41 65 -62 65 -10 0 -18 -6
-18 -12z"/>
<path d="M7202 4248 c-16 -16 -15 -29 7 -55 21 -25 51 -31 51 -10 0 19 -30 77
-39 77 -4 0 -12 -5 -19 -12z"/>
<path d="M7260 4253 c1 -16 28 -43 44 -43 19 0 21 21 4 38 -13 13 -48 16 -48
5z"/>
<path d="M7210 4150 c0 -5 5 -10 10 -10 6 0 10 5 10 10 0 6 -4 10 -10 10 -5 0
-10 -4 -10 -10z"/>
<path d="M6754 4104 c3 -9 6 -19 6 -24 0 -4 6 -10 14 -13 12 -5 13 -1 4 24 -5
16 -14 29 -20 29 -6 0 -7 -7 -4 -16z"/>
<path d="M7130 4090 c0 -5 5 -10 11 -10 5 0 7 5 4 10 -3 6 -8 10 -11 10 -2 0
-4 -4 -4 -10z"/>
<path d="M4030 4074 c0 -14 3 -14 15 -4 8 7 15 14 15 16 0 2 -7 4 -15 4 -8 0
-15 -7 -15 -16z"/>
<path d="M7118 3936 c-17 -16 -14 -49 5 -74 5 -7 7 -16 3 -19 -4 -4 -11 -1
-16 7 -14 22 -30 0 -19 -27 10 -28 39 -30 39 -4 0 11 5 23 10 26 6 4 8 16 5
26 -4 11 -2 26 4 33 8 9 7 18 -2 30 -12 17 -15 17 -29 2z"/>
<path d="M4154 3916 c-8 -8 -7 -15 2 -23 9 -9 14 -8 18 4 9 21 -6 35 -20 19z"/>
<path d="M4310 3905 c-16 -20 8 -31 27 -13 13 14 13 16 0 21 -9 3 -21 0 -27
-8z"/>
<path d="M4022 3898 c-9 -9 -7 -17 10 -35 31 -34 47 -30 39 9 -7 35 -29 46
-49 26z"/>
<path d="M4151 3834 c0 -11 3 -14 6 -6 3 7 2 16 -1 19 -3 4 -6 -2 -5 -13z"/>
<path d="M4011 3816 c-11 -13 -7 -16 28 -26 36 -10 57 -30 31 -30 -5 0 -10 -7
-10 -16 0 -11 8 -14 33 -12 26 2 32 7 33 28 1 14 5 33 9 42 6 14 1 17 -22 17
-15 0 -42 3 -59 6 -21 5 -34 2 -43 -9z"/>
<path d="M6870 3711 c0 -10 8 -25 17 -32 15 -12 16 -12 10 4 -4 10 -7 25 -7
33 0 8 -4 14 -10 14 -5 0 -10 -8 -10 -19z"/>
<path d="M4132 3698 c-7 -7 -12 -18 -12 -25 0 -7 -5 -13 -12 -13 -6 0 -9 -2
-6 -5 12 -12 58 15 58 35 0 23 -10 26 -28 8z"/>
<path d="M7030 3690 c0 -11 7 -20 15 -20 13 0 14 4 5 20 -6 11 -13 20 -15 20
-3 0 -5 -9 -5 -20z"/>
<path d="M6820 3680 c0 -5 5 -10 10 -10 6 0 10 5 10 10 0 6 -4 10 -10 10 -5 0
-10 -4 -10 -10z"/>
<path d="M4145 6428 c-52 -28 -61 -84 -19 -123 31 -29 53 -31 93 -10 53 27 48
100 -8 130 -35 18 -40 18 -66 3z"/>
<path d="M5647 4159 c-9 -32 -9 -39 2 -39 14 0 22 30 12 47 -6 12 -9 11 -14
-8z"/>
<path d="M5708 4142 c-4 -12 -2 -25 4 -28 15 -10 19 1 10 26 l-9 24 -5 -22z"/>
<path d="M5780 4148 c0 -9 5 -20 10 -23 13 -8 13 5 0 25 -8 13 -10 13 -10 -2z"/>
<path d="M5270 4130 c0 -5 5 -10 10 -10 6 0 10 5 10 10 0 6 -4 10 -10 10 -5 0
-10 -4 -10 -10z"/>
<path d="M5641 4064 c0 -11 3 -14 6 -6 3 7 2 16 -1 19 -3 4 -6 -2 -5 -13z"/>
<path d="M6600 3461 c0 -6 5 -13 10 -16 6 -3 10 1 10 9 0 9 -4 16 -10 16 -5 0
-10 -4 -10 -9z"/>
<path d="M6662 3458 c5 -15 28 -23 28 -10 0 5 -7 13 -16 16 -10 4 -14 1 -12
-6z"/>
<path d="M4962 3428 c2 -6 10 -14 16 -16 7 -2 10 2 6 12 -7 18 -28 22 -22 4z"/>
<path d="M5670 3336 c0 -8 7 -16 15 -20 10 -4 15 1 15 14 0 11 -7 20 -15 20
-8 0 -15 -6 -15 -14z"/>
<path d="M5440 3295 c0 -8 5 -15 10 -15 6 0 10 7 10 15 0 8 -4 15 -10 15 -5 0
-10 -7 -10 -15z"/>
<path d="M6483 3268 c-2 -16 1 -17 13 -8 17 15 17 17 1 23 -8 3 -14 -3 -14
-15z"/>
<path d="M5627 3244 c-4 -4 -7 -14 -7 -23 0 -11 3 -12 11 -4 6 6 10 16 7 23
-2 6 -7 8 -11 4z"/>
<path d="M6484 3223 c3 -8 6 -17 6 -19 0 -2 7 -4 15 -4 23 0 18 27 -6 33 -15
4 -19 2 -15 -10z"/>
<path d="M4457 3131 c-9 -15 -14 -31 -11 -34 11 -10 -34 -50 -50 -44 -16 6
-46 -16 -46 -34 0 -5 11 -9 25 -9 14 0 25 5 25 11 0 6 7 8 16 5 19 -7 54 19
54 40 0 7 9 18 20 24 27 14 25 30 -2 30 -17 0 -19 3 -10 12 14 14 16 28 4 28
-4 0 -15 -13 -25 -29z"/>
<path d="M4670 3120 c0 -5 4 -10 9 -10 6 0 13 5 16 10 3 6 -1 10 -9 10 -9 0
-16 -4 -16 -10z"/>
<path d="M6710 3120 c0 -5 5 -10 11 -10 5 0 7 5 4 10 -3 6 -8 10 -11 10 -2 0
-4 -4 -4 -10z"/>
<path d="M4590 3080 c-8 -5 -12 -12 -9 -15 4 -3 12 1 19 10 14 17 11 19 -10 5z"/>
<path d="M4450 3001 c-13 -26 -13 -31 4 -31 13 0 26 20 26 41 0 16 -19 10 -30
-10z"/>
<path d="M4560 3009 c0 -5 5 -7 10 -4 6 3 10 8 10 11 0 2 -4 4 -10 4 -5 0 -10
-5 -10 -11z"/>
<path d="M6405 3010 c-3 -5 -1 -10 4 -10 6 0 11 5 11 10 0 6 -2 10 -4 10 -3 0
-8 -4 -11 -10z"/>
<path d="M4516 2984 c-4 -15 -5 -29 -2 -31 9 -9 27 9 22 22 -2 7 1 18 7 24 8
8 7 11 -5 11 -9 0 -19 -12 -22 -26z"/>
<path d="M4636 2984 c-15 -14 -33 -23 -39 -21 -6 2 -21 -8 -33 -22 l-22 -25
29 -14 c25 -13 32 -12 68 9 49 27 67 17 26 -15 -30 -24 -28 -46 5 -46 10 0 21
-6 24 -12 3 -9 12 -5 27 12 18 21 19 25 5 28 -9 2 -16 7 -16 11 0 13 24 31 42
31 21 0 23 -11 6 -28 -9 -9 -7 -12 10 -12 40 0 80 58 52 75 -6 4 -8 11 -5 16
4 5 -7 6 -24 3 -23 -5 -32 -2 -43 15 -19 30 -75 28 -112 -5z"/>
<path d="M4366 2965 c-15 -12 -24 -25 -19 -28 11 -7 74 6 73 16 0 4 0 11 0 16
0 19 -27 17 -54 -4z"/>
<path d="M6307 2883 c-7 -11 10 -40 18 -31 4 4 3 14 -3 24 -5 9 -12 12 -15 7z"/>
<path d="M6200 2850 c0 -5 9 -12 20 -15 11 -4 18 -11 15 -16 -4 -5 -1 -9 4 -9
15 0 14 27 -1 37 -19 11 -38 13 -38 3z"/>
<path d="M4380 2835 c-7 -9 -10 -18 -7 -21 3 -3 10 4 17 15 13 25 8 27 -10 6z"/>
<path d="M4840 2842 c0 -7 -7 -12 -15 -12 -8 0 -15 -7 -15 -16 0 -8 -5 -12
-10 -9 -6 4 -28 -13 -49 -37 -43 -47 -61 -46 -41 2 7 17 10 33 8 36 -11 10
-39 -29 -35 -47 3 -12 0 -19 -9 -19 -8 0 -14 -7 -14 -16 0 -12 7 -15 25 -12
18 4 25 1 25 -10 0 -10 12 -2 34 21 18 20 39 37 45 37 15 0 51 32 51 46 0 7 6
14 13 17 10 4 10 7 0 18 -10 9 -13 10 -13 1z"/>
<path d="M4395 2780 c2 -27 15 -38 15 -12 0 11 -4 23 -8 26 -5 3 -8 -4 -7 -14z"/>
<path d="M4441 2756 c-19 -23 4 -28 24 -6 15 17 16 20 3 20 -9 0 -21 -6 -27
-14z"/>
<path d="M6080 2760 c0 -5 5 -10 11 -10 5 0 7 5 4 10 -3 6 -8 10 -11 10 -2 0
-4 -4 -4 -10z"/>
<path d="M6252 2731 c2 -18 9 -26 23 -26 33 0 87 -35 81 -51 -4 -10 2 -14 19
-14 29 0 34 29 10 54 -8 8 -15 17 -15 20 0 21 -42 43 -79 43 -39 0 -42 -1 -39
-26z"/>
<path d="M4825 2699 c-4 -6 -5 -13 -2 -16 7 -7 27 6 27 18 0 12 -17 12 -25 -2z"/>
<path d="M4640 2651 c-6 -12 -7 -21 -1 -21 10 0 24 30 17 37 -2 3 -9 -5 -16
-16z"/>
<path d="M4685 2650 c-3 -5 -1 -10 4 -10 6 0 11 5 11 10 0 6 -2 10 -4 10 -3 0
-8 -4 -11 -10z"/>
<path d="M5990 2642 c0 -7 7 -28 14 -47 16 -37 40 -46 50 -19 9 24 7 36 -6 32
-7 -3 -22 7 -35 21 -12 14 -23 20 -23 13z"/>
<path d="M4715 2610 c-3 -5 -1 -10 4 -10 6 0 11 5 11 10 0 6 -2 10 -4 10 -3 0
-8 -4 -11 -10z"/>
<path d="M4830 2575 c-20 -24 -6 -28 15 -5 10 11 13 20 8 20 -6 0 -16 -7 -23
-15z"/>
<path d="M6160 2582 c0 -5 7 -15 15 -22 8 -7 15 -8 15 -2 0 5 -7 15 -15 22 -8
7 -15 8 -15 2z"/>
<path d="M4700 2559 c0 -5 5 -7 10 -4 6 3 10 8 10 11 0 2 -4 4 -10 4 -5 0 -10
-5 -10 -11z"/>
<path d="M6336 2563 c6 -4 14 -15 17 -23 5 -11 6 -9 4 4 -1 11 -9 21 -17 23
-10 3 -11 2 -4 -4z"/>
<path d="M5710 2530 c0 -18 4 -29 10 -25 6 3 10 15 10 25 0 10 -4 22 -10 25
-6 4 -10 -7 -10 -25z"/>
<path d="M6455 2550 c4 -6 11 -8 16 -5 14 9 11 15 -7 15 -8 0 -12 -5 -9 -10z"/>
<path d="M5594 2508 c3 -13 6 -27 6 -31 0 -5 10 -7 22 -5 25 4 37 28 14 28 -9
0 -19 7 -22 15 -10 24 -27 17 -20 -7z"/>
<path d="M6200 2489 c7 -11 14 -18 17 -15 8 8 -5 36 -17 36 -7 0 -7 -6 0 -21z"/>
<path d="M4910 2460 c-8 -5 -11 -12 -7 -16 4 -4 13 -2 19 4 15 15 7 24 -12 12z"/>
<path d="M5698 2440 c-11 -38 -10 -56 3 -43 6 6 9 23 7 39 l-3 29 -7 -25z"/>
<path d="M5570 2398 c0 -7 5 -20 10 -28 7 -12 12 -12 22 -2 9 9 8 12 -6 12 -9
0 -15 4 -11 9 3 5 1 12 -5 16 -5 3 -10 0 -10 -7z"/>
<path d="M5360 2294 c0 -8 5 -12 10 -9 6 3 10 10 10 16 0 5 -4 9 -10 9 -5 0
-10 -7 -10 -16z"/>
</g>
</svg>
